<?xml version="1.0" standalone="no"?>
<!DOCTYPE svg PUBLIC "-//W3C//DTD SVG 20010904//EN"
 "http://www.w3.org/TR/2001/REC-SVG-20010904/DTD/svg10.dtd">
<svg version="1.0" xmlns="http://www.w3.org/2000/svg"
 width="34.800000pt" height="35.000000pt" viewBox="0 0 348.000000 350.000000"
 preserveAspectRatio="xMidYMid meet">

<g transform="translate(0.000000,350.000000) scale(0.100000,-0.100000)"
fill="#000000" stroke="none">
<path d="M1319 3467 c-45 -30 -67 -91 -53 -146 l11 -40 -91 -90 -91 -91 -37
12 c-51 15 -119 -10 -148 -56 -41 -67 -17 -166 50 -201 l30 -16 0 -369 c0
-356 -1 -369 -19 -375 -11 -3 -34 -22 -50 -41 -27 -30 -31 -43 -31 -91 0 -51
3 -58 39 -94 36 -36 43 -39 94 -39 48 0 61 4 91 31 19 16 38 39 41 50 6 18 19
19 378 19 l372 0 14 -31 c30 -67 135 -91 202 -46 45 30 67 91 53 146 l-11 40
91 90 91 91 37 -12 c51 -15 119 10 148 56 40 65 16 170 -45 198 l-25 11 0 369
0 368 45 43 c43 42 45 46 45 101 0 54 -3 61 -39 97 -36 36 -43 39 -94 39 -48
0 -61 -4 -91 -31 -19 -16 -38 -39 -41 -50 -6 -18 -19 -19 -378 -19 l-372 0
-13 30 c-30 67 -136 92 -203 47z m134 -69 c38 -44 6 -111 -53 -111 -22 0 -39
7 -52 22 -59 74 43 161 105 89z m1013 1 c37 -41 5 -111 -51 -111 -53 0 -87 68
-54 108 29 35 74 37 105 3z m-181 -100 c6 -18 -9 -38 -82 -111 -88 -88 -89
-88 -121 -77 -62 22 -135 -10 -168 -72 l-15 -29 -227 2 -227 3 -3 101 -3 102
35 21 c19 12 41 35 48 51 l13 30 372 0 c371 0 372 0 378 -21z m-931 -75 c13
-5 16 -25 16 -110 l0 -104 -104 0 c-98 0 -105 1 -111 21 -6 18 9 38 81 110 92
93 92 93 118 83z m1027 -4 c5 0 9 -151 9 -367 l0 -368 -38 -20 c-21 -11 -46
-36 -57 -57 l-20 -38 -97 0 -98 0 0 240 c0 191 3 240 13 240 7 0 28 15 46 34
36 38 52 108 33 142 -9 16 2 32 81 112 53 54 97 90 105 87 8 -3 18 -5 23 -5z
m-1310 -188 c48 -40 17 -122 -46 -122 -40 0 -68 30 -68 72 0 36 32 68 68 68
13 0 33 -8 46 -18z m1013 -3 c49 -39 22 -119 -41 -119 -34 0 -73 36 -73 67 0
29 42 73 68 73 11 0 31 -9 46 -21z m-714 -319 c0 -230 0 -231 -22 -239 -43
-17 -80 -67 -85 -114 -3 -24 -1 -53 5 -63 8 -16 -4 -33 -77 -113 -73 -79 -91
-92 -109 -87 l-22 7 0 369 0 368 34 20 c19 11 42 34 51 51 l16 31 104 0 105 0
0 -230z m552 200 c9 -17 33 -40 53 -51 l35 -21 -2 -232 -3 -231 -232 -3 -232
-2 -16 29 c-8 17 -31 42 -50 57 l-35 26 0 229 0 229 233 0 232 0 17 -30z
m-475 -522 c13 -12 23 -32 23 -45 0 -29 -42 -73 -68 -73 -33 0 -72 38 -72 71
0 61 71 90 117 47z m1018 2 c26 -29 24 -79 -4 -102 -47 -38 -114 -8 -114 50 0
42 28 72 68 72 19 0 39 -8 50 -20z m-455 -187 l0 -98 -39 -22 c-22 -12 -45
-36 -52 -53 l-14 -30 -372 0 c-371 0 -372 0 -378 21 -6 18 9 38 82 111 88 88
89 88 121 77 18 -6 48 -8 67 -5 39 8 91 47 100 76 6 19 17 20 246 20 l239 0 0
-97z m277 81 c4 -11 -21 -43 -85 -106 -115 -116 -122 -115 -122 22 l0 100 100
0 c83 0 102 -3 107 -16z m-1211 -275 c37 -41 5 -111 -51 -111 -53 0 -87 68
-54 108 29 35 74 37 105 3z m1017 -1 c38 -44 6 -111 -53 -111 -22 0 -39 7 -52
22 -59 74 43 161 105 89z"/>
<path d="M1117 1753 c-4 -3 -7 -109 -7 -234 l0 -228 -47 27 c-44 25 -57 27
-163 27 -107 0 -119 -2 -175 -29 -188 -92 -282 -312 -230 -535 43 -179 181
-306 364 -333 86 -13 145 -5 206 27 l46 25 9 -25 10 -26 122 3 123 3 3 653 2
652 -128 0 c-71 0 -132 -3 -135 -7z m-91 -624 c80 -38 134 -161 120 -273 -9
-68 -56 -149 -106 -182 -59 -39 -137 -38 -188 3 -20 16 -50 52 -67 78 -28 45
-30 56 -30 139 0 82 3 96 29 144 27 48 70 91 106 105 32 12 96 6 136 -14z"/>
<path d="M1908 1331 c-25 -10 -60 -28 -76 -40 l-31 -21 -3 32 -3 33 -132 3
-133 3 0 -440 c0 -391 2 -440 16 -445 20 -8 218 -8 238 0 14 5 16 41 16 293 1
249 3 290 18 320 54 109 229 116 275 11 7 -15 13 -140 17 -325 l5 -300 119 -3
c78 -2 123 1 132 9 11 9 14 65 14 299 0 281 0 288 23 320 37 56 68 72 135 73
73 0 107 -18 130 -71 13 -30 17 -91 21 -332 l6 -295 125 0 125 0 0 325 c0 283
-2 332 -18 382 -21 68 -61 118 -126 156 -43 25 -53 27 -171 27 -142 0 -196
-14 -281 -71 l-51 -34 -19 24 c-11 14 -47 38 -81 55 -55 28 -70 31 -152 31
-63 -1 -105 -6 -138 -19z"/>
<path d="M380 50 l0 -50 1340 0 1340 0 0 50 0 50 -1340 0 -1340 0 0 -50z"/>
</g>
</svg>
